<svg width="40" height="40" viewBox="0 0 40 40" fill="none" xmlns="http://www.w3.org/2000/svg">
<g id="Frame 2085663007">
<g id="Group 2085663006">
<path id="Vector" d="M19.9981 38.5C19.9006 38.5001 19.8033 38.4891 19.7083 38.4673C19.5518 38.4311 15.8284 37.5512 12.0785 34.822C9.85384 33.203 8.07742 31.2652 6.79912 29.0635C5.19818 26.306 4.38672 23.1457 4.38672 19.6667V8.20889C4.38674 7.94696 4.46649 7.69124 4.61537 7.47573C4.76425 7.26023 4.9752 7.09515 5.22018 7.00245L19.543 1.58323C19.8373 1.47226 20.1619 1.47226 20.4562 1.58323L34.779 7.00245C35.0241 7.09501 35.2352 7.26004 35.3842 7.47557C35.5332 7.69109 35.613 7.94689 35.613 8.20889V19.6667C35.613 23.1457 34.8015 26.307 33.2006 29.0635C31.9223 31.2633 30.1458 33.203 27.9212 34.822C24.1684 37.5492 20.4449 38.4291 20.288 38.4673C20.1929 38.4891 20.0957 38.5001 19.9981 38.5ZM6.96728 9.09906V19.6667C6.96728 25.1059 9.17387 29.4859 13.526 32.6838C16.2893 34.714 19.1026 35.6213 19.9981 35.8755C20.8937 35.6213 23.7074 34.714 26.4708 32.6838C30.8214 29.4859 33.0295 25.1069 33.0295 19.6667V9.09906L19.9981 4.16965L6.96728 9.09906Z" fill="white"/>
<path id="Vector_2" d="M19.0303 25.0971H19.0108C18.8381 25.0945 18.6677 25.0573 18.5096 24.9876C18.3516 24.9179 18.2092 24.8171 18.0908 24.6913L13.9626 20.3041C13.7279 20.0549 13.6017 19.7228 13.6119 19.3807C13.6221 19.0385 13.7677 18.7145 14.0169 18.4797C14.266 18.245 14.5981 18.1188 14.9403 18.129C15.2824 18.1392 15.6065 18.2849 15.8412 18.534L19.0582 21.9558L26.7622 14.2518C26.8813 14.1287 27.0237 14.0305 27.1811 13.9629C27.3386 13.8954 27.5078 13.8599 27.6791 13.8584C27.8504 13.857 28.0203 13.8897 28.1788 13.9546C28.3373 14.0195 28.4813 14.1153 28.6025 14.2364C28.7236 14.3575 28.8194 14.5015 28.8843 14.6601C28.9492 14.8186 28.9818 14.9884 28.9804 15.1597C28.979 15.331 28.9435 15.5003 28.8759 15.6577C28.8084 15.8151 28.7102 15.9575 28.5871 16.0766L19.9425 24.7187C19.8228 24.8386 19.6806 24.9338 19.5241 24.9987C19.3676 25.0636 19.1998 25.0971 19.0303 25.0971Z" fill="white"/>
</g>
</g>
</svg>
