<svg width="40" height="40" viewBox="0 0 40 40" fill="none" xmlns="http://www.w3.org/2000/svg">
<g id="ico01">
<g id="Group 2085663007">
<path id="&#231;&#155;&#180;&#231;&#186;&#191; 4" d="M16.6074 10.208H24.0371" stroke="white" stroke-width="2.15925" stroke-linecap="round" stroke-linejoin="round"/>
<path id="&#232;&#183;&#175;&#229;&#190;&#132; 3680" d="M10.2256 2.37402H29.7734C30.6114 2.37339 31.4165 2.70713 32.0098 3.2998C32.6022 3.89179 32.9354 4.69593 32.9355 5.53418V34.4629C32.9362 35.3022 32.6035 36.1075 32.0107 36.7012C31.4174 37.2945 30.612 37.6286 29.7734 37.6279H10.2256C9.38712 37.6285 8.58162 37.2945 7.98828 36.7012H7.98926C7.39628 36.1075 7.06287 35.3025 7.06348 34.4629V5.53418C7.06359 4.69639 7.39696 3.89131 7.98926 3.29883L7.99023 3.2998C8.58357 2.70717 9.38769 2.37345 10.2256 2.37402Z" stroke="white" stroke-width="2.12787" stroke-linecap="round" stroke-linejoin="round"/>
<path id="&#232;&#183;&#175;&#229;&#190;&#132; 3683" d="M16.5391 29.1241C16.5391 30.3608 17.1986 31.5033 18.2694 32.1216C19.3408 32.7399 20.66 32.7399 21.7316 32.1216C22.8022 31.5033 23.4619 30.3608 23.4619 29.1241C23.4619 27.8867 22.8022 26.7442 21.7316 26.1258C20.66 25.5075 19.3408 25.5075 18.2694 26.1258C17.1986 26.7442 16.5391 27.8867 16.5391 29.1241V29.1241V29.1241Z" stroke="white" stroke-width="1.5"/>
</g>
</g>
</svg>
