<svg width="50" height="60" viewBox="0 0 50 60" fill="none" xmlns="http://www.w3.org/2000/svg">
<path id="Vector" d="M18.8636 0C18.0303 0 17.3863 0.3 16.8939 0.9C16.4015 1.5 16.25 2.1 16.4015 2.8125C17.5379 7.125 16.4015 11.4 12.803 15.8625C11.9697 16.9125 10.8333 17.925 9.69696 19.125C5.41666 23.25 0 28.4625 0 38.2125C0 53.925 14.9242 59.1 18.5227 59.55C20.1515 59.7 22.7651 60 24.6591 60C26.5151 60 30.1894 59.55 30.6439 59.4C43.9394 55.6875 50 47.7 50 34.35C50.0378 13.3125 28.2197 0 18.8636 0ZM29.5075 56.625C29.5075 56.625 28.0303 57.1125 26.4394 57.3C25.0379 57.4875 23.5985 57.3375 23.2954 57.3C22.1591 57.1125 15.9848 55.7625 14.8485 49.1625C14.0909 44.775 16.1742 42.0375 18.0303 39.3375C18.5985 38.475 19.356 37.65 19.8863 36.7875C21.4015 34.0875 22.1212 31.5375 21.9318 29.175C26.8182 30.525 35.0378 35.2875 36.553 43.725C37.5378 50.3625 35.6818 53.925 29.5075 56.625ZM40.9469 50.775C41.4772 48.4125 41.2878 45.9 40.9469 43.8375C38.6742 31.0875 24.2424 25.125 18.4848 25.9125C17.6136 26.0625 16.9318 26.55 16.553 27.1875C16.2121 27.825 16.2121 28.6125 16.3636 29.25C17.2348 31.3125 17.0454 33.4875 15.6818 36C15.3409 36.6375 14.8106 37.275 14.2803 37.875C12.197 40.5375 9.39393 44.325 10.4545 50.2875C10.6439 51.375 10.9848 52.35 11.3257 53.2875C7.49999 50.625 3.67424 45.9 3.67424 38.6625C3.67424 30.15 8.3712 25.6125 12.5379 21.525C13.9394 20.25 15.1515 19.0125 16.1742 17.7375C20.0757 13.05 21.9697 8.325 21.6288 3.45C30.3409 5.9625 46.3257 17.1375 46.3257 34.7625C46.3257 41.8125 44.7727 47.025 40.9469 50.775Z" fill="white"/>
</svg>
