<svg width="60" height="49" viewBox="0 0 60 49" fill="none" xmlns="http://www.w3.org/2000/svg">
<path id="Vector" d="M37.0213 49C36.0638 49 35.1064 48.0516 35.1064 47.4194L30.6383 13.9097L26.1702 35.7226C25.8511 36.671 25.2128 37.3032 24.2553 37.3032C23.2979 37.3032 22.6596 36.671 22.3404 36.0387L17.234 20.2323L14.3617 30.3484C14.3617 30.9806 13.4043 31.6129 12.4468 31.6129H1.91489C0.957447 31.6129 0 30.6645 0 29.7161C0 28.7677 0.957447 27.8194 1.91489 27.8194H11.1702L15 12.329C15.3191 11.3806 15.9574 10.7484 16.9149 10.7484C17.8723 10.7484 18.5106 11.3806 18.8298 12.0129L23.9362 27.5032L29.3617 1.58065C29.3617 0.632258 30.3191 0 31.2766 0C32.234 0 33.1915 0.632258 33.1915 1.58065L37.9787 37.3032L40.5319 29.0839C40.8511 28.1355 41.4894 27.8194 42.4468 27.8194H58.0851C59.0426 27.8194 60 28.7677 60 29.7161C60 30.6645 59.0426 31.6129 58.0851 31.6129H44.0426L39.2553 47.4194C38.617 48.3677 37.9787 49 37.0213 49Z" fill="white"/>
</svg>
