<svg width="60" height="60" viewBox="0 0 60 60" fill="none" xmlns="http://www.w3.org/2000/svg">
<path id="Union" d="M30 0C34.0438 0 37.9784 0.792399 41.6768 2.35938C45.2486 3.86737 48.4581 6.03237 51.2129 8.78711C53.9677 11.5419 56.1336 14.7512 57.6416 18.3232C59.2086 22.0216 60 25.9562 60 30C60 34.0438 59.2086 37.9784 57.6416 41.6768C56.1336 45.2488 53.9677 48.4581 51.2129 51.2129C48.4581 53.9677 45.2488 56.1336 41.6768 57.6416C37.9784 59.2086 34.0522 60 30 60C25.9478 60 22.0216 59.2086 18.3232 57.6416C14.7512 56.1336 11.5419 53.9677 8.78711 51.2129C6.03237 48.4581 3.86737 45.2486 2.35938 41.6768C0.792399 37.9784 0 34.0438 0 30C2.05365e-06 25.9562 0.792401 22.0216 2.35938 18.3232C3.86737 14.7514 6.03237 11.5419 8.78711 8.78711C11.5419 6.03237 14.7514 3.86737 18.3232 2.35938C22.0216 0.7924 25.9562 1.36456e-06 30 0ZM30 5.05469C23.3361 5.05469 17.0772 7.65002 12.3594 12.3594C7.6416 17.0687 5.05469 23.3361 5.05469 30C5.05469 36.6639 7.65002 42.9238 12.3594 47.6416C17.0687 52.3591 23.3364 54.9453 30 54.9453C36.6639 54.9453 42.9238 52.351 47.6416 47.6416C52.3594 42.9322 54.9453 36.6639 54.9453 30C54.9453 23.3364 52.3507 17.0771 47.6416 12.3594C42.9322 7.6416 36.6639 5.05469 30 5.05469ZM28.3145 12.7383C29.7129 12.7383 30.8418 13.8671 30.8418 15.2656V29.1572H41.3643C42.7626 29.1572 43.8914 30.2863 43.8916 31.6846C43.8916 33.0831 42.7627 34.2119 41.3643 34.2119H28.3145C28.1398 34.2119 27.9693 34.1947 27.8047 34.1611C27.5578 34.1108 27.3241 34.0246 27.1094 33.9082C26.9659 33.8304 26.831 33.7388 26.7061 33.6357C26.1447 33.1726 25.7871 32.4712 25.7871 31.6846V15.2656C25.7871 13.8673 26.9161 12.7385 28.3145 12.7383Z" fill="white"/>
</svg>
