<svg width="59" height="60" viewBox="0 0 59 60" fill="none" xmlns="http://www.w3.org/2000/svg">
<path id="Vector" d="M53.4792 14.8661C53.6146 14.7321 53.6146 14.5982 53.75 14.4643C55.51 11.5179 55.51 7.76786 53.75 4.82143C51.9899 1.875 48.7405 0 45.2204 0C41.7002 0 38.4509 1.875 36.6908 5.08929C36.5554 5.22321 36.5554 5.49107 36.42 5.625C26.2657 4.28571 16.2468 9.24107 11.102 18.0804C10.8312 18.6161 10.4251 19.1518 10.1543 19.8214H9.47732C4.1971 19.9554 6.34642e-08 24.2411 0 29.4643C0 34.5536 3.92632 38.7054 9.07115 39.1071C13.1329 50.7589 24.9118 57.7232 37.2323 55.8482C39.1278 58.5268 42.1064 60 45.2204 60C46.8451 60 48.6051 59.4643 50.2298 58.5268C54.6977 55.8482 56.3224 50.3571 53.8853 45.8036C54.5623 45 55.1039 44.1964 55.6454 43.2589C60.7903 34.2857 59.9779 22.9018 53.4792 14.8661ZM15.5699 29.3304C15.5699 32.6786 12.8621 35.3571 9.47732 35.3571C6.09256 35.3571 3.38476 32.6786 3.38476 29.3304C3.38476 25.9821 6.09256 23.3036 9.47732 23.3036C11.102 23.3036 12.5913 23.9732 13.8098 25.0446C14.8929 26.1161 15.5699 27.7232 15.5699 29.3304ZM42.2418 45.1339C44.408 43.9286 47.1158 44.0625 49.0113 45.5357C50.9068 47.0089 51.8545 49.4196 51.1775 51.8304C50.5006 54.2411 48.4697 55.9821 46.0327 56.25C43.5957 56.5179 41.1587 55.4464 39.9401 53.3036C38.3155 50.4911 39.2632 46.7411 42.2418 45.1339ZM40.2109 42.0536C36.5554 44.1964 34.7953 48.3482 35.743 52.3661C25.7242 53.4375 16.1114 47.6786 12.5913 38.4375C16.3822 37.2322 18.9546 33.8839 19.2254 30C19.4962 26.1161 17.1946 22.3661 13.6744 20.7589C13.9452 20.4911 14.0806 20.0893 14.216 19.8214C18.6839 12.3214 26.9427 8.16964 35.6077 8.97322C35.2015 12.7232 37.0969 16.3393 40.4817 18.2143C43.8665 20.0893 47.9282 19.8214 51.0422 17.5446C56.4578 24.5089 56.9993 34.0179 52.5314 41.6518C52.2607 42.1875 51.8545 42.5893 51.5837 43.125C48.4697 40.3125 43.8665 39.9107 40.2109 42.0536ZM43.5957 3.88393C44.1372 3.75 44.6788 3.61607 45.2204 3.61607C46.3035 3.61607 47.6574 3.75 48.7405 4.55357C49.959 5.35714 50.7714 6.69643 51.1775 8.30357C51.5837 9.77679 51.3129 11.5179 50.5006 12.8571C49.5529 14.1964 48.3343 15.2679 46.7097 15.6696C45.2204 16.0714 43.4603 15.8036 42.1064 15C39.1278 13.2589 38.1801 9.64286 39.8048 6.69643C40.7525 5.35714 41.971 4.28571 43.5957 3.88393Z" fill="white"/>
</svg>
