<svg width="50" height="50" viewBox="0 0 50 50" fill="none" xmlns="http://www.w3.org/2000/svg">
<g id="Frame">
<path id="Vector" d="M6.81784 39.9116C6.81784 38.7959 7.71659 37.8914 8.87709 37.8914H41.1221C42.2593 37.8914 43.1813 38.8286 43.1813 39.9116C43.1813 41.0274 42.2823 41.9319 41.1221 41.9319H8.87709C7.73959 41.9321 6.81784 40.9949 6.81784 39.9116ZM22.9793 11.7399V7.55236C22.9793 6.45661 23.9163 5.56836 24.9996 5.56836C26.1153 5.56836 27.0198 6.48911 27.0198 7.55236V11.7399C25.6771 11.5915 24.3221 11.5915 22.9793 11.7399ZM10.7936 18.4619L8.32209 15.9901C7.54734 15.2156 7.58184 13.9246 8.34784 13.1589C9.13684 12.3699 10.4273 12.3816 11.1791 13.1331L13.6508 15.6049C12.5959 16.4488 11.6376 17.4069 10.7936 18.4619ZM36.3483 15.6049L38.8201 13.1331C39.5951 12.3584 40.8856 12.3931 41.6513 13.1589C42.4403 13.9479 42.4286 15.2386 41.6771 15.9901L39.2056 18.4619C38.3615 17.407 37.4033 16.4488 36.3483 15.6049ZM39.1408 29.8106C39.1408 22.0006 32.8096 15.6694 24.9996 15.6694C17.1893 15.6694 10.8581 22.0006 10.8581 29.8106H4.80234C3.70559 29.8106 2.77734 30.7149 2.77734 31.8309C2.77734 32.9139 3.68409 33.8511 4.80234 33.8511H45.1968C46.2938 33.8511 47.2218 32.9469 47.2218 31.8309C47.2218 30.7476 46.3151 29.8106 45.1968 29.8106H39.1408Z" fill="#D2FF5C"/>
</g>
</svg>
