<svg width="50" height="50" viewBox="0 0 50 50" fill="none" xmlns="http://www.w3.org/2000/svg">
<g id="Frame">
<path id="Vector" d="M34.4797 13.3201L33.9084 6.33509C33.9084 6.10607 33.9084 5.8198 33.6799 5.59078C33.1657 4.84648 32.423 4.84648 31.9088 5.36177L26.4242 10.0566C29.395 10.2856 32.2516 11.488 34.4797 13.3201ZM23.5105 9.99937L18.0259 5.30451C17.7974 5.07549 17.5117 5.07549 17.2832 5.07549C16.769 5.07549 16.0263 5.59078 16.0263 6.33509L15.3979 13.3201C17.6831 11.488 20.4826 10.2856 23.5105 9.99937ZM39.9643 23.5686L44.6491 18.0722C44.8776 17.8432 44.8776 17.5569 44.8776 17.3279C44.8776 16.8126 44.3634 16.0683 43.6207 16.0683L36.6507 15.4958C38.4789 17.6714 39.6787 20.4769 39.9643 23.5686ZM9.97042 23.5686C10.2561 20.4769 11.4558 17.6714 13.3412 15.4385L6.37115 16.0111C6.14263 16.0111 5.85697 16.0111 5.62844 16.2401C5.11426 16.7554 4.88574 17.4997 5.39992 18.015L9.97042 23.5686ZM37.9647 25C37.9647 17.8432 32.0802 11.946 24.9388 11.946C17.7974 11.946 11.9129 17.8432 11.9129 25C11.9129 32.1568 17.7974 38.054 24.9388 38.054C32.1373 38.054 37.9647 32.1568 37.9647 25ZM44.6491 31.9278L39.9643 26.4314C39.6787 29.5231 38.4789 32.3286 36.5936 34.5615L43.5636 33.9889C43.7921 33.9889 44.0778 33.9889 44.3063 33.7599C45.1633 33.1874 45.1633 32.3858 44.6491 31.9278ZM9.97042 26.4314L5.28566 31.9278C5 32.1568 5 32.3858 5 32.6721C5 33.1874 5.51418 33.9317 6.25689 33.9317L13.2269 34.5042C11.4558 32.3286 10.2561 29.5231 9.97042 26.4314ZM26.3671 40.0006L31.8517 44.6955C32.0802 44.9245 32.3659 44.9245 32.5944 44.9245C33.1086 44.9245 33.8513 44.4092 33.8513 43.6649L34.4797 36.6799C32.2516 38.512 29.395 39.7144 26.3671 40.0006ZM15.3979 36.6799L16.0263 43.6649C16.0263 43.8939 16.0263 44.1802 16.2549 44.4092C16.769 45.1535 17.5117 45.1535 18.0259 44.6382L23.5105 39.9434C20.4826 39.7144 17.6831 38.512 15.3979 36.6799Z" fill="#FF8C00"/>
</g>
</svg>
