<svg width="44" height="37" viewBox="0 0 44 37" fill="none" xmlns="http://www.w3.org/2000/svg">
<path id="Union" d="M32.5654 0C35.6315 0 38.5081 1.18734 40.6611 3.33984C42.814 5.49227 44.0009 8.3683 44.001 11.4346C44.001 14.501 42.8142 17.3773 40.6611 19.5303L38.9844 21.2061L26.0781 34.1113L26.0801 34.1133L23.8906 36.3027L10.7266 23.1396L12.916 20.9502L23.8877 31.9219L36.4004 19.4111H31.6699C31.4285 19.4107 31.1902 19.3538 30.9746 19.2451C30.7591 19.1364 30.5716 18.979 30.4277 18.7852L28.79 16.5859L26.9521 21.0322C26.8354 21.3157 26.6374 21.5587 26.3828 21.7295C26.1282 21.9003 25.8281 21.9917 25.5215 21.9922C25.1734 21.992 24.8357 21.874 24.5625 21.6582L21.7139 19.4102H19.2158C18.9122 19.4097 18.6154 19.3201 18.3623 19.1523C18.1092 18.9845 17.9106 18.7464 17.792 18.4668L16.2998 14.9482L14.8936 18.4414C14.7783 18.728 14.5801 18.9735 14.3242 19.1465C14.0681 19.3195 13.7661 19.4121 13.457 19.4121H1.54883C1.13807 19.4121 0.744548 19.2484 0.454102 18.958C0.163656 18.6676 0 18.274 0 17.8633C3.16171e-05 17.4526 0.163683 17.059 0.454102 16.7686C0.744536 16.4782 1.13813 16.3145 1.54883 16.3145H12.4092L14.8203 10.3164C14.9348 10.0318 15.1322 9.78805 15.3857 9.61523C15.6393 9.44243 15.9383 9.34819 16.2451 9.3457C16.552 9.34009 16.8535 9.42754 17.1104 9.5957C17.3671 9.76389 17.567 10.0055 17.6846 10.2891L20.2422 16.3145H22.252C22.6006 16.314 22.94 16.4307 23.2139 16.6465L24.873 17.958L26.9707 12.8828C27.0752 12.6299 27.2453 12.4092 27.4629 12.2432C27.6806 12.0771 27.9392 11.9714 28.2109 11.9375C28.4825 11.9036 28.758 11.9425 29.0098 12.0498C29.2616 12.1572 29.4809 12.3293 29.6445 12.5488L32.4463 16.3135H39.3418C40.3586 14.9013 40.917 13.1971 40.917 11.4346C40.917 9.21967 40.0369 7.09547 38.4707 5.5293C36.9045 3.96318 34.7803 3.08304 32.5654 3.08301C30.3505 3.08301 28.2264 3.96324 26.6602 5.5293L25.126 7.06152L24.0361 8.23633L21.1602 5.56934C19.5489 3.95963 17.4523 3.09577 15.2139 3.0957C13.9819 3.09209 12.7643 3.3617 11.6494 3.88574C10.5346 4.40981 9.54982 5.17517 8.7666 6.12598C7.9834 7.07688 7.42088 8.19015 7.12012 9.38477C6.81937 10.5795 6.78766 11.8267 7.02734 13.0352L3.98535 13.6211C3.62675 11.7819 3.72426 9.8823 4.27051 8.08984C4.81675 6.29748 5.79485 4.66645 7.11816 3.33984C9.27216 1.18543 12.1474 6.12922e-05 15.2139 0C18.2804 0 21.1565 1.18685 23.3096 3.33984L23.9111 3.89746L24.4697 3.33984C26.6242 1.18491 29.4994 2.98797e-05 32.5654 0Z" fill="#D2FF5C"/>
</svg>
