<svg width="44" height="35" viewBox="0 0 44 35" fill="none" xmlns="http://www.w3.org/2000/svg">
<path id="Union" d="M15.5049 10.207C15.9239 10.2071 16.3427 10.3117 16.7617 10.624C17.076 10.9364 17.3904 11.2486 17.4951 11.665L21.0576 25.2021L21.6855 23.1191C21.7903 22.7027 22.1047 22.3905 22.4189 22.0781C22.7332 21.8699 23.1523 21.6612 23.5713 21.6611H42.1143C42.3238 21.6611 42.6381 21.6615 42.8477 21.7656C43.0572 21.8697 43.2671 21.9734 43.4766 22.1816C43.6861 22.3899 43.7907 22.5984 43.8955 22.8066C44.0003 23.0149 44 23.3279 44 23.5361C44 23.7444 44.0002 24.0565 43.8955 24.2646C43.7908 24.4729 43.686 24.6814 43.4766 24.8896C43.2671 25.0979 43.0571 25.2016 42.8477 25.3057C42.6381 25.4098 42.3238 25.4102 42.1143 25.4102H24.9336L22.7334 33.0117C22.6286 33.4282 22.4187 33.74 22.1045 33.9482C21.7902 34.1565 21.3712 34.3652 20.9521 34.3652H20.6377V34.4697C20.2188 34.4696 19.7995 34.2609 19.4854 34.0527C19.1713 33.8444 18.9622 33.428 18.8574 33.0117L15.6094 20.4121L14.7715 23.9521C14.6667 24.3686 14.457 24.7849 14.0381 24.9932C13.7239 25.3055 13.2002 25.4101 12.7813 25.4102H1.99023C1.78071 25.4102 1.46628 25.4098 1.25684 25.3057C1.04731 25.3055 0.733617 25.0972 0.628907 24.9932C0.419556 24.7851 0.314638 24.5772 0.209961 24.3691C0.000534962 24.0569 3.56847e-07 23.8483 3.11463e-07 23.5361C3.11463e-07 23.2237 -0.000269413 23.0149 0.104492 22.8066C0.209252 22.5984 0.31392 22.3899 0.523438 22.1816C0.732861 21.9735 1.04731 21.8697 1.25684 21.7656C1.46628 21.6615 1.78071 21.6611 1.99023 21.6611H11.21L13.5146 11.665C13.6194 11.2485 13.829 10.8323 14.248 10.624C14.5623 10.3116 14.9811 10.207 15.5049 10.207ZM34.4688 0C35.3067 0.000119863 36.145 0.312839 36.7734 0.9375C37.2971 1.45818 37.7158 2.29118 37.7158 3.12402C37.7158 3.95703 37.5065 4.79029 36.8779 5.41504C35.8304 6.56036 34.6779 7.70546 33.4209 8.64258C33.2115 8.85074 32.8971 8.95498 32.583 8.95508C32.2687 8.95508 31.9537 8.95533 31.7441 8.74707C30.4871 7.80992 29.3347 6.66394 28.2871 5.51855C27.7636 4.89393 27.4493 4.06126 27.4492 3.22852C27.4492 2.39565 27.7633 1.56224 28.3916 0.9375C29.0202 0.312719 29.8589 0 30.8018 0C31.4303 3.51447e-05 32.059 0.208144 32.6875 0.520508C33.1065 0.208195 33.7355 0 34.4688 0Z" fill="#D2FF5C"/>
</svg>
