<svg width="44" height="44" viewBox="0 0 44 44" fill="none" xmlns="http://www.w3.org/2000/svg">
<path id="Union" d="M38.8281 33.6611C39.507 33.6611 40.1795 33.7949 40.8066 34.0547C41.4336 34.3145 42.0035 34.6949 42.4834 35.1748C42.9634 35.6548 43.3437 36.2254 43.6035 36.8525C43.8632 37.4796 43.997 38.1514 43.9971 38.8301C43.9971 40.201 43.4527 41.5159 42.4834 42.4854C41.514 43.4548 40.1991 44 38.8281 44C37.4572 44 36.1422 43.4548 35.1729 42.4854C34.2036 41.5159 33.6592 40.201 33.6592 38.8301C33.6592 38.1514 33.7931 37.4796 34.0527 36.8525C34.3125 36.2254 34.6928 35.6548 35.1729 35.1748C35.6527 34.6949 36.2226 34.3145 36.8496 34.0547C37.4767 33.7949 38.1493 33.6611 38.8281 33.6611ZM38.8281 36.7871C38.2862 36.7871 37.766 37.0016 37.3828 37.3848C36.9996 37.768 36.7843 38.2882 36.7842 38.8301C36.7842 39.372 36.9997 39.8921 37.3828 40.2754C37.7661 40.6586 38.2861 40.874 38.8281 40.874C39.3701 40.874 39.8902 40.6587 40.2734 40.2754C40.6566 39.8921 40.8721 39.372 40.8721 38.8301C40.872 38.2882 40.6566 37.768 40.2734 37.3848C39.8902 37.0016 39.3701 36.7871 38.8281 36.7871ZM18.3926 2.4043C23.2706 2.4043 27.9491 4.34258 31.3984 7.79199C34.8476 11.2414 36.7852 15.9197 36.7852 20.7979C36.7852 25.676 34.8476 30.3543 31.3984 33.8037C27.9491 37.2531 23.2706 39.1914 18.3926 39.1914C13.5146 39.1914 8.83599 37.2531 5.38672 33.8037C1.9376 30.3543 0 25.6759 0 20.7979C2.16923e-06 15.9198 1.9376 11.2414 5.38672 7.79199C8.83599 4.3426 13.5146 2.40432 18.3926 2.4043ZM18.3926 5.53027C16.3877 5.53028 14.4021 5.92512 12.5498 6.69238C10.6978 7.4596 9.0152 8.58443 7.59766 10.002C6.18003 11.4196 5.05533 13.1028 4.28809 14.9551C3.52084 16.8074 3.12598 18.7929 3.12598 20.7979C3.12598 22.8028 3.52084 24.7883 4.28809 26.6406C5.05533 28.4929 6.18003 30.1761 7.59766 31.5938C9.0152 33.0113 10.6978 34.1361 12.5498 34.9033C14.4021 35.6706 16.3877 36.0654 18.3926 36.0654C22.4417 36.0654 26.3253 34.457 29.1885 31.5938C32.0515 28.7305 33.6602 24.847 33.6602 20.7979C33.6602 16.7487 32.0515 12.8652 29.1885 10.002C26.3253 7.13871 22.4417 5.53027 18.3926 5.53027ZM18.2451 9.69238C18.6566 9.64786 19.0689 9.7682 19.3916 10.0273C19.7143 10.2865 19.9214 10.6629 19.9668 11.0742C20.012 11.486 19.8919 11.8994 19.6328 12.2227C19.3736 12.5459 18.9959 12.7535 18.584 12.7988C16.5759 13.0191 14.6953 13.8902 13.2285 15.2793C11.7617 16.6685 10.789 18.4989 10.46 20.4922C10.433 20.7002 10.3649 20.9011 10.2588 21.082C10.1528 21.2628 10.0109 21.4199 9.84277 21.5449C9.67458 21.67 9.48295 21.7601 9.2793 21.8096C9.07551 21.859 8.86317 21.8671 8.65625 21.833C8.44948 21.7989 8.25129 21.7234 8.07422 21.6113C7.89723 21.4992 7.74422 21.353 7.625 21.1807C7.50568 21.0082 7.42238 20.8128 7.37988 20.6074C7.3375 20.4023 7.33695 20.1908 7.37793 19.9854C7.81784 17.3189 9.11804 14.8692 11.0801 13.0107C13.0422 11.1523 15.5587 9.98698 18.2451 9.69238ZM38.8281 0C39.507 0 40.1795 0.13377 40.8066 0.393555C41.4336 0.653306 42.0035 1.0338 42.4834 1.51367C42.9634 1.99369 43.3437 2.56423 43.6035 3.19141C43.8632 3.81842 43.997 4.49027 43.9971 5.16895C43.9971 6.53983 43.4527 7.8548 42.4834 8.82422C41.514 9.79366 40.1991 10.3389 38.8281 10.3389C37.4572 10.3389 36.1422 9.79365 35.1729 8.82422C34.2036 7.8548 33.6592 6.5398 33.6592 5.16895C33.6592 4.49029 33.7931 3.81841 34.0527 3.19141C34.3125 2.56423 34.6928 1.99369 35.1729 1.51367C35.6527 1.0338 36.2227 0.653315 36.8496 0.393555C37.4767 0.133776 38.1493 6.75366e-06 38.8281 0ZM38.8281 3.12598C38.5597 3.12594 38.2939 3.17857 38.0459 3.28125C37.798 3.38393 37.5726 3.53486 37.3828 3.72461C37.1932 3.91426 37.0421 4.13898 36.9395 4.38672C36.8368 4.63456 36.7842 4.90068 36.7842 5.16895C36.7842 5.4372 36.8368 5.70332 36.9395 5.95117C37.0421 6.19905 37.1931 6.42452 37.3828 6.61426C37.5726 6.80402 37.7979 6.95493 38.0459 7.05762C38.2939 7.1603 38.5597 7.21293 38.8281 7.21289C39.3701 7.2128 39.8903 6.99752 40.2734 6.61426C40.6565 6.23102 40.8711 5.71079 40.8711 5.16895C40.871 4.62729 40.6563 4.10774 40.2734 3.72461C39.8903 3.34135 39.3701 3.12607 38.8281 3.12598Z" fill="#D2FF5C"/>
</svg>
