<svg width="50" height="50" viewBox="0 0 50 50" fill="none" xmlns="http://www.w3.org/2000/svg">
<g id="&#229;&#164;&#169;&#230;&#176;&#148;_&#233;&#155;&#183;&#231;&#148;&#181;" clip-path="url(#clip0_1753_121)">
<rect id="Rectangle" opacity="0.01" width="49.2586" height="49.2586" fill="white" stroke="#F6F6F6" stroke-width="0.447805"/>
<g id="&#233;&#155;&#183;&#231;&#148;&#181;" clip-path="url(#clip1_1753_121)">
<g id="Group" clip-path="url(#clip2_1753_121)">
<g id="&#228;&#186;&#145; copy" clip-path="url(#clip3_1753_121)">
<g id="Mask Copy" clip-path="url(#clip4_1753_121)">
<path id="Mask" d="M25.124 0C31.4562 0 36.7536 4.43739 38.0947 10.3799C44.2996 10.6127 49.2586 15.7157 49.2588 21.9775C49.2588 28.3876 44.0623 33.5847 37.6523 33.585H11.6064C5.19636 33.5848 0 28.3877 0 21.9775C0.000147405 15.5675 5.19645 10.3712 11.6064 10.3711H12.1553C13.4997 4.43302 18.7949 4.89832e-06 25.124 0Z" fill="url(#paint0_linear_1753_121)"/>
<mask id="mask0_1753_121" style="mask-type:luminance" maskUnits="userSpaceOnUse" x="0" y="0" width="50" height="34">
<path id="Mask_2" d="M25.124 0C31.4562 0 36.7536 4.43739 38.0947 10.3799C44.2996 10.6127 49.2586 15.7157 49.2588 21.9775C49.2588 28.3876 44.0623 33.5847 37.6523 33.585H11.6064C5.19636 33.5848 0 28.3877 0 21.9775C0.000147405 15.5675 5.19645 10.3712 11.6064 10.3711H12.1553C13.4997 4.43302 18.7949 4.89832e-06 25.124 0Z" fill="white"/>
</mask>
<g mask="url(#mask0_1753_121)">
<g id="Mask Copy_2" filter="url(#filter0_d_1753_121)">
<ellipse cx="28.5716" cy="13.816" rx="8.86654" ry="8.89025" fill="url(#paint1_linear_1753_121)"/>
</g>
</g>
</g>
<g id="&#233;&#151;&#170;&#231;&#148;&#181;" clip-path="url(#clip5_1753_121)">
<g id="Mask Copy 4" clip-path="url(#clip6_1753_121)">
<path id="Mask_3" fill-rule="evenodd" clip-rule="evenodd" d="M32.3441 23.5523C32.8259 23.8134 32.9623 24.4429 32.6321 24.8802L27.8115 31.2628L31.0894 34.8916C31.4501 35.2912 31.3785 35.9169 30.9375 36.2257L20.9821 43.198C19.4696 44.2572 17.5377 42.6123 18.3422 40.9503L20.7673 35.9398L18.8642 35.1485C18.3871 34.9499 18.1762 34.3899 18.4043 33.9262L24.9616 20.6127C25.1863 20.1573 25.7448 19.9794 26.1915 20.2212L32.3441 23.5523Z" fill="url(#paint2_linear_1753_121)"/>
<mask id="mask1_1753_121" style="mask-type:luminance" maskUnits="userSpaceOnUse" x="18" y="20" width="15" height="24">
<path id="Mask_4" fill-rule="evenodd" clip-rule="evenodd" d="M32.3441 23.5523C32.8259 23.8134 32.9623 24.4429 32.6321 24.8802L27.8115 31.2628L31.0894 34.8916C31.4501 35.2912 31.3785 35.9169 30.9375 36.2257L20.9821 43.198C19.4696 44.2572 17.5377 42.6123 18.3422 40.9503L20.7673 35.9398L18.8642 35.1485C18.3871 34.9499 18.1762 34.3899 18.4043 33.9262L24.9616 20.6127C25.1863 20.1573 25.7448 19.9794 26.1915 20.2212L32.3441 23.5523Z" fill="white"/>
</mask>
<g mask="url(#mask1_1753_121)">
<g id="Rectangle 3 Copy" filter="url(#filter1_f_1753_121)">
<path d="M29.9498 17.0956C30.1743 16.6397 30.7328 16.4618 31.1796 16.7037L37.3319 20.0345C37.8139 20.2955 37.9505 20.9244 37.6202 21.3618L28.8464 32.9812C28.6002 33.3072 28.1647 33.4254 27.7875 33.2684L23.8521 31.6307C23.3748 31.4321 23.1643 30.8718 23.3927 30.4081L29.9498 17.0956Z" fill="#FFC300"/>
</g>
</g>
</g>
<g id="Mask Copy 3" clip-path="url(#clip7_1753_121)">
<path id="Mask_5" d="M24.9635 20.6112C25.188 20.1553 25.7464 19.9774 26.1933 20.2193L32.3456 23.5501C32.8276 23.8111 32.9642 24.44 32.6339 24.8774L23.8601 36.4969C23.6139 36.8229 23.1784 36.941 22.8012 36.784L18.8658 35.1463C18.3885 34.9477 18.178 34.3874 18.4064 33.9237L24.9635 20.6112Z" fill="url(#paint3_linear_1753_121)"/>
<mask id="mask2_1753_121" style="mask-type:luminance" maskUnits="userSpaceOnUse" x="18" y="20" width="15" height="17">
<path id="Mask_6" d="M24.9635 20.6112C25.188 20.1553 25.7464 19.9774 26.1933 20.2193L32.3456 23.5501C32.8276 23.8111 32.9642 24.44 32.6339 24.8774L23.8601 36.4969C23.6139 36.8229 23.1784 36.941 22.8012 36.784L18.8658 35.1463C18.3885 34.9477 18.178 34.3874 18.4064 33.9237L24.9635 20.6112Z" fill="white"/>
</mask>
<g mask="url(#mask2_1753_121)">
<path id="Mask Copy 3_2" fill-rule="evenodd" clip-rule="evenodd" d="M32.3441 23.5523C32.8259 23.8134 32.9623 24.4429 32.6321 24.8802L27.8115 31.2628L31.0894 34.8916C31.4501 35.2912 31.3785 35.9169 30.9375 36.2257L20.9821 43.198C19.4696 44.2572 17.5377 42.6123 18.3422 40.9503L20.7673 35.9398L18.8642 35.1485C18.3871 34.9499 18.1762 34.3899 18.4043 33.9262L24.9616 20.6127C25.1863 20.1573 25.7448 19.9794 26.1915 20.2212L32.3441 23.5523Z" fill="url(#paint4_linear_1753_121)"/>
</g>
</g>
</g>
<g id="Combined Shape Copy" clip-path="url(#clip8_1753_121)">
<circle id="Mask_7" cx="25.397" cy="13.4342" r="13.4342" fill="url(#paint5_linear_1753_121)"/>
<mask id="mask3_1753_121" style="mask-type:luminance" maskUnits="userSpaceOnUse" x="11" y="0" width="28" height="27">
<circle id="Mask_8" cx="25.397" cy="13.4342" r="13.4342" fill="white"/>
</mask>
<g mask="url(#mask3_1753_121)">
<path id="Combined Shape Copy_2" d="M25.8467 0C32.2428 0.0001915 37.5937 4.4705 38.9482 10.457C45.2141 10.6751 50.2265 15.8226 50.2266 22.1416C50.2266 28.5993 44.9919 33.834 38.5342 33.834H12.1631C5.70558 33.8338 0.470703 28.5992 0.470703 22.1416C0.470785 15.6841 5.70563 10.4494 12.1631 10.4492H12.7451C14.1025 4.46638 19.4531 0 25.8467 0Z" fill="url(#paint6_linear_1753_121)"/>
<path id="Mask Copy 2" d="M25.873 -0.994141C32.6455 -0.994026 38.3119 3.73927 39.7461 10.0781C46.38 10.3097 51.6865 15.7608 51.6865 22.4512C51.6863 29.2885 46.144 34.8309 39.3066 34.8311H11.3848C4.54733 34.8311 -0.995899 29.2886 -0.996094 22.4512C-0.996094 15.6136 4.54721 10.0703 11.3848 10.0703H12.001C13.438 3.73528 19.1032 -0.994141 25.873 -0.994141Z" fill="url(#paint7_linear_1753_121)"/>
</g>
</g>
</g>
</g>
<path id="Rectangle 16 Copy 6" d="M12.6058 44.8493C10.9444 46.5106 8.25087 46.5106 6.58952 44.8493C4.92817 43.1879 4.92817 40.4944 6.58952 38.833L9.59766 35.8249L12.6058 38.833C14.2671 40.4944 14.2671 43.1879 12.6058 44.8493Z" fill="url(#paint8_linear_1753_121)"/>
<path id="Rectangle 16 Copy 7" d="M40.3714 44.8493C38.7101 46.5106 36.0165 46.5106 34.3551 44.8493C32.6938 43.1879 32.6938 40.4944 34.3551 38.833L37.3633 35.8249L40.3714 38.833C42.0328 40.4944 42.0328 43.1879 40.3714 44.8493Z" fill="url(#paint9_linear_1753_121)"/>
</g>
</g>
<defs>
<filter id="filter0_d_1753_121" x="14.7792" y="2.23895" width="27.5841" height="27.632" filterUnits="userSpaceOnUse" color-interpolation-filters="sRGB">
<feFlood flood-opacity="0" result="BackgroundImageFix"/>
<feColorMatrix in="SourceAlpha" type="matrix" values="0 0 0 0 0 0 0 0 0 0 0 0 0 0 0 0 0 0 127 0" result="hardAlpha"/>
<feOffset dy="2.23903"/>
<feGaussianBlur stdDeviation="2.46293"/>
<feColorMatrix type="matrix" values="0 0 0 0 0.657856 0 0 0 0 0.737753 0 0 0 0 0.764386 0 0 0 1 0"/>
<feBlend mode="normal" in2="BackgroundImageFix" result="effect1_dropShadow_1753_121"/>
<feBlend mode="normal" in="SourceGraphic" in2="effect1_dropShadow_1753_121" result="shape"/>
</filter>
<filter id="filter1_f_1753_121" x="14.78" y="8.07488" width="31.5417" height="33.7829" filterUnits="userSpaceOnUse" color-interpolation-filters="sRGB">
<feFlood flood-opacity="0" result="BackgroundImageFix"/>
<feBlend mode="normal" in="SourceGraphic" in2="BackgroundImageFix" result="shape"/>
<feGaussianBlur stdDeviation="4.26041" result="effect1_foregroundBlur_1753_121"/>
</filter>
<linearGradient id="paint0_linear_1753_121" x1="0" y1="0" x2="0" y2="33.585" gradientUnits="userSpaceOnUse">
<stop stop-color="#E0EBEF"/>
<stop offset="1" stop-color="#E9F8FF"/>
</linearGradient>
<linearGradient id="paint1_linear_1753_121" x1="19.7051" y1="4.92578" x2="19.7051" y2="22.7063" gradientUnits="userSpaceOnUse">
<stop stop-color="#E0EBEF"/>
<stop offset="1" stop-color="#E9F8FF"/>
</linearGradient>
<linearGradient id="paint2_linear_1753_121" x1="22.7393" y1="20.8792" x2="20.191" y2="40.2585" gradientUnits="userSpaceOnUse">
<stop stop-color="#FFE592"/>
<stop offset="1" stop-color="#FDAB00"/>
</linearGradient>
<linearGradient id="paint3_linear_1753_121" x1="23.8867" y1="20.3129" x2="22.7818" y2="34.5608" gradientUnits="userSpaceOnUse">
<stop stop-color="#FDAB00"/>
<stop offset="1" stop-color="#FFE592"/>
</linearGradient>
<linearGradient id="paint4_linear_1753_121" x1="22.7393" y1="20.8792" x2="20.191" y2="40.2585" gradientUnits="userSpaceOnUse">
<stop stop-color="#FDAB00"/>
<stop offset="1" stop-color="#FFE592"/>
</linearGradient>
<linearGradient id="paint5_linear_1753_121" x1="11.9629" y1="0" x2="11.9629" y2="26.8683" gradientUnits="userSpaceOnUse">
<stop stop-color="#E0EBEF"/>
<stop offset="1" stop-color="#E9F8FF"/>
</linearGradient>
<linearGradient id="paint6_linear_1753_121" x1="0.470703" y1="0" x2="0.470703" y2="33.834" gradientUnits="userSpaceOnUse">
<stop stop-color="#E0EBEF"/>
<stop offset="1" stop-color="#E9F8FF"/>
</linearGradient>
<linearGradient id="paint7_linear_1753_121" x1="2.31715" y1="2.89904" x2="5.99125" y2="26.6241" gradientUnits="userSpaceOnUse">
<stop stop-color="#F5FCFF"/>
<stop offset="1" stop-color="#C7D6DC" stop-opacity="0.01"/>
</linearGradient>
<linearGradient id="paint8_linear_1753_121" x1="9.59766" y1="47.8574" x2="15.6139" y2="41.8411" gradientUnits="userSpaceOnUse">
<stop stop-color="#E0EBEF"/>
<stop offset="1" stop-color="#E9F8FF"/>
</linearGradient>
<linearGradient id="paint9_linear_1753_121" x1="37.3633" y1="47.8574" x2="43.3796" y2="41.8411" gradientUnits="userSpaceOnUse">
<stop stop-color="#E0EBEF"/>
<stop offset="1" stop-color="#E9F8FF"/>
</linearGradient>
<clipPath id="clip0_1753_121">
<rect width="49.2586" height="49.2586" fill="white"/>
</clipPath>
<clipPath id="clip1_1753_121">
<rect width="49.2586" height="47.857" fill="white"/>
</clipPath>
<clipPath id="clip2_1753_121">
<rect width="49.2586" height="45.746" fill="white"/>
</clipPath>
<clipPath id="clip3_1753_121">
<rect width="49.2586" height="45.746" fill="white"/>
</clipPath>
<clipPath id="clip4_1753_121">
<rect width="49.2586" height="33.5853" fill="white"/>
</clipPath>
<clipPath id="clip5_1753_121">
<rect width="15.3395" height="23.4846" fill="white" transform="translate(27.1113 17.9121) rotate(45)"/>
</clipPath>
<clipPath id="clip6_1753_121">
<rect width="15.3291" height="23.4439" fill="white" transform="translate(27.1113 17.9121) rotate(45)"/>
</clipPath>
<clipPath id="clip7_1753_121">
<rect width="10.492" height="17.8984" fill="white" transform="translate(27.1113 17.9121) rotate(45)"/>
</clipPath>
<clipPath id="clip8_1753_121">
<rect width="26.8683" height="26.8683" fill="white" transform="translate(11.9629)"/>
</clipPath>
</defs>
</svg>
