<svg width="70" height="70" viewBox="0 0 70 70" fill="none" xmlns="http://www.w3.org/2000/svg">
<g id="Group 2085663372">
<circle id="Ellipse 1626" cx="35" cy="35" r="35" fill="#D2FF5C"/>
<path id="Union" d="M34.9229 16C37.0191 16.0001 38.7236 17.7045 38.7236 19.8008C38.7236 21.2046 37.9586 22.4316 36.8242 23.0898V25.7275H42.2734C45.4052 25.7275 47.9529 28.2755 47.9531 31.4072V45.4521C47.9531 48.584 45.4053 51.1318 42.2734 51.1318H27.5732C24.4414 51.1318 21.8926 48.584 21.8926 45.4521V31.4072C21.8928 28.2755 24.4415 25.7275 27.5732 25.7275H33.0234V23.0908C31.8878 22.4329 31.1221 21.2055 31.1221 19.8008C31.1221 17.7044 32.8264 16 34.9229 16ZM27.5732 29.5332C26.5378 29.5332 25.6943 30.3767 25.6943 31.4121V45.4561C25.6943 46.4915 26.5378 47.3359 27.5732 47.3359H42.2734C43.3089 47.3359 44.1523 46.4915 44.1523 45.4561V31.4072C44.1521 30.372 43.3087 29.5283 42.2734 29.5283H35.001C34.9754 29.5294 34.9497 29.5322 34.9238 29.5322C34.8977 29.5322 34.8715 29.5294 34.8457 29.5283H27.5732V29.5332ZM17.9004 32.6816C18.9486 32.6816 19.8007 33.5339 19.8008 34.582V42.2822C19.8006 43.3346 18.9528 44.1826 17.9004 44.1826C16.8523 44.1826 16.0002 43.3303 16 42.2822V34.582C16.0001 33.5339 16.8522 32.6817 17.9004 32.6816ZM52.0996 32.6816C53.1478 32.6817 53.9999 33.5339 54 34.582V42.2822C53.9998 43.3346 53.1477 44.1826 52.0996 44.1826C51.0515 44.1826 50.1994 43.3303 50.1992 42.2822V34.582C50.1993 33.5339 51.0514 32.6816 52.0996 32.6816ZM30.1416 36.2617C31.339 36.2617 32.3105 37.2333 32.3105 38.4307C32.3103 39.6278 31.3388 40.5996 30.1416 40.5996C28.9444 40.5996 27.9729 39.6278 27.9727 38.4307C27.9727 37.2333 28.9443 36.2618 30.1416 36.2617ZM39.6826 36.2617C40.8798 36.262 41.8506 37.2334 41.8506 38.4307C41.8504 39.6277 40.8796 40.5994 39.6826 40.5996C38.4854 40.5996 37.5139 39.6278 37.5137 38.4307C37.5137 37.2333 38.4853 36.2617 39.6826 36.2617Z" fill="#282828"/>
</g>
</svg>
