<svg width="44" height="44" viewBox="0 0 44 44" fill="none" xmlns="http://www.w3.org/2000/svg">
<g id="Frame">
<path id="Vector" d="M9.40114 37.5871C8.87641 37.5885 8.36064 37.4512 7.90607 37.189C7.45149 36.9269 7.07427 36.5493 6.81261 36.0945C6.55094 35.6396 6.41413 35.1237 6.41604 34.599C6.41794 34.0743 6.55849 33.5594 6.82344 33.1064L8.15629 30.7946C8.29231 30.5537 8.3659 30.2825 8.37038 30.0059C8.37486 29.7292 8.31009 29.4558 8.18195 29.2106C6.61598 26.2066 6.07159 22.774 6.63123 19.4329C7.19086 16.0917 8.82403 13.0239 11.2834 10.6941C13.7428 8.36433 16.8944 6.89942 20.2609 6.52125C23.6274 6.14308 27.0255 6.87226 29.9405 8.59835C32.8554 10.3244 35.1286 12.9534 36.4155 16.0871C37.7025 19.2209 37.9332 22.6886 37.0728 25.9652C36.2123 29.2418 34.3076 32.1488 31.647 34.2459C28.9864 36.343 25.7149 37.5159 22.3279 37.5871H9.40295H9.40114ZM22.0144 9.23645C19.8195 9.23476 17.6613 9.79886 15.7479 10.8743C13.8346 11.9498 12.2307 13.5002 11.0912 15.3761C9.95168 17.252 9.31492 19.39 9.24239 21.5836C9.16986 23.7773 9.66401 25.9527 10.6771 27.8997C11.0301 28.566 11.2081 29.3111 11.1943 30.065C11.1805 30.8189 10.9754 31.557 10.5983 32.2099L9.25995 34.5236L9.40114 34.7656L22.2308 34.7527C24.7945 34.7081 27.2852 33.8919 29.3781 32.4107C31.471 30.9295 33.069 28.8519 33.9636 26.4489C34.8582 24.046 35.0079 21.4293 34.3931 18.94C33.7784 16.4507 32.4278 14.2045 30.5174 12.4942C28.1872 10.3894 25.1564 9.22792 22.0163 9.23641L22.0144 9.23645ZM20.5954 23.4118H16.4723C16.0989 23.4118 15.7407 23.2634 15.4767 22.9994C15.2126 22.7353 15.0643 22.3772 15.0643 22.0038C15.0643 21.6303 15.2126 21.2722 15.4767 21.0081C15.7407 20.7441 16.0989 20.5958 16.4723 20.5958H20.5973V16.4708C20.5973 16.0973 20.7456 15.7392 21.0097 15.4751C21.2737 15.2111 21.6319 15.0628 22.0053 15.0628C22.3787 15.0628 22.7368 15.2111 23.0009 15.4751C23.2649 15.7392 23.4133 16.0973 23.4133 16.4708V20.5958H27.5273C27.9007 20.5958 28.2588 20.7441 28.5229 21.0081C28.787 21.2722 28.9353 21.6303 28.9353 22.0038C28.9353 22.3772 28.787 22.7353 28.5229 22.9994C28.2588 23.2634 27.9007 23.4118 27.5273 23.4118H23.4114V27.5276C23.4105 27.901 23.2616 28.2589 22.9973 28.5228C22.7331 28.7867 22.3751 28.9351 22.0016 28.9356V28.9411C21.8162 28.9413 21.6326 28.9049 21.4613 28.8339C21.29 28.7629 21.1344 28.6587 21.0035 28.5273C20.8727 28.3959 20.7691 28.24 20.6987 28.0684C20.6284 27.8968 20.5927 27.713 20.5936 27.5276V23.4118H20.5954Z" fill="white"/>
</g>
</svg>
