<svg width="44" height="44" viewBox="0 0 44 44" fill="none" xmlns="http://www.w3.org/2000/svg">
<g id="Frame">
<path id="Vector" d="M36.2317 13.1521H7.76918C6.67605 13.1521 5.8098 12.2653 5.8098 11.1928C5.8098 10.0996 6.69668 9.2334 7.76918 9.2334H36.2317C37.3248 9.2334 38.1911 10.1203 38.1911 11.1928C38.2117 12.2859 37.3248 13.1521 36.2317 13.1521ZM30.0442 23.9596H7.76918C6.67605 23.9596 5.8098 23.0728 5.8098 22.0003C5.8098 20.9071 6.69668 20.0409 7.76918 20.0409H30.0442C31.1373 20.0409 32.0036 20.9278 32.0036 22.0003C32.0036 23.0934 31.1167 23.9596 30.0442 23.9596ZM24.8261 34.7671H7.76918C6.67605 34.7671 5.8098 33.8803 5.8098 32.8078C5.8098 31.7146 6.69668 30.8484 7.76918 30.8484H24.8261C25.9192 30.8484 26.7854 31.7353 26.7854 32.8078C26.7854 33.9009 25.9192 34.7671 24.8261 34.7671Z" fill="white"/>
</g>
</svg>
