<svg width="60" height="60" viewBox="0 0 60 60" fill="none" xmlns="http://www.w3.org/2000/svg">
<g id="Group 2085663371">
<circle id="Ellipse 1626" cx="30" cy="30" r="30" fill="#D2FF5C"/>
<path id="Vector" d="M44.9982 44.1337L43.3874 13.4103C43.3587 12.8733 43.0432 12.3941 42.5677 12.1546C42.0882 11.915 41.5185 11.9563 41.0799 12.262L13.6395 31.2875C13.1928 31.5973 12.951 32.1343 13.0083 32.6796C13.0698 33.2248 13.4223 33.6916 13.9264 33.894L23.6279 37.8015C24.3862 38.1072 25.2428 37.7354 25.5461 36.9713C25.8494 36.2071 25.4805 35.3438 24.7222 35.0381L17.5824 32.1632L40.5799 16.2191L41.9283 41.9693L37.2559 40.0899C37.2518 40.0858 37.2436 40.0857 37.2395 40.0816C37.2272 40.0775 37.2108 40.0692 37.1985 40.0651C37.1862 40.061 37.178 40.0568 37.1657 40.0527C37.1534 40.0486 37.1452 40.0444 37.1329 40.0403C37.1206 40.0362 37.1042 40.0321 37.0919 40.0279C37.0837 40.0238 37.0755 40.0238 37.0673 40.0197L37.0182 40.0073C37.0141 40.0073 37.0059 40.0031 37.0018 40.0031C36.9854 39.999 36.9649 39.9949 36.9485 39.9949C36.9444 39.9949 36.9403 39.9949 36.9362 39.9907C36.9157 39.9866 36.8993 39.9866 36.8788 39.9825H36.8665C36.846 39.9825 36.8296 39.9784 36.8091 39.9784H36.6411C36.6288 39.9784 36.6165 39.9784 36.6001 39.9825C36.5878 39.9825 36.5755 39.9866 36.5632 39.9866C36.555 39.9866 36.5427 39.9866 36.5345 39.9907C36.5181 39.9907 36.5017 39.9949 36.4894 39.999C36.4812 39.999 36.4771 40.0031 36.4689 40.0031C36.4525 40.0073 36.432 40.0114 36.4157 40.0114C36.4116 40.0114 36.4034 40.0155 36.3993 40.0155C36.3788 40.0197 36.3624 40.0238 36.3419 40.0279C36.3378 40.0279 36.3337 40.0321 36.3296 40.0321C36.3091 40.0362 36.2927 40.0444 36.2722 40.0486C36.2681 40.0486 36.264 40.0527 36.2599 40.0527C36.2435 40.0568 36.223 40.0651 36.2066 40.0692C36.2025 40.0734 36.1943 40.0734 36.1902 40.0775C36.1738 40.0816 36.1574 40.0899 36.1451 40.0981C36.1369 40.1023 36.1287 40.1064 36.1206 40.1064C36.1083 40.1105 36.096 40.1188 36.0796 40.1229C36.0673 40.1271 36.0591 40.1312 36.0468 40.1394C36.0345 40.1436 36.0263 40.1518 36.014 40.156C36.0017 40.1642 35.9894 40.1684 35.9771 40.1766C35.973 40.1808 35.9648 40.1808 35.9607 40.1849L29.9357 43.7785L30.2841 38.9664L38.3871 23.4477C38.7683 22.7207 38.4896 21.8202 37.7682 21.4402C37.0468 21.056 36.1533 21.3369 35.7763 22.0639L27.5298 37.8635C27.4355 38.0452 27.3782 38.2435 27.3659 38.4459L26.788 46.4056C26.747 46.9591 27.0134 47.4878 27.4806 47.7769C27.7183 47.9256 27.9889 48 28.2594 48C28.5176 48 28.7799 47.9298 29.0094 47.7935L36.8378 43.1217L42.9776 45.596C43.1538 45.6662 43.3383 45.7034 43.5268 45.7034C43.8301 45.7034 44.1334 45.6084 44.3875 45.4266C44.7933 45.1251 45.0228 44.6418 44.9982 44.1337Z" fill="#282828"/>
</g>
</svg>
