<svg width="44" height="44" viewBox="0 0 44 44" fill="none" xmlns="http://www.w3.org/2000/svg">
<g id="Frame">
<path id="Vector" d="M37.7775 18.8363C37.4106 17.6841 36.4147 16.7937 35.1567 16.5319L28.0283 15.3273L24.8834 8.88542C24.3592 7.78559 23.2061 7 21.9481 7C20.7426 7 19.5894 7.73322 19.0129 8.83305L15.868 15.2749L8.73952 16.5842C7.53397 16.7937 6.53809 17.6317 6.11877 18.8363V18.941C5.80428 20.0932 6.11877 21.4025 7.00982 22.2405L12.0941 27.0064L10.6789 33.972C10.4692 35.1766 10.9934 36.4859 11.9893 37.2715C12.5658 37.6905 13.1948 37.9 13.9286 37.9C14.4003 37.9 14.9769 37.7429 15.4486 37.5334L22.0005 34.2863L28.5 37.5334C29.0241 37.7429 29.5483 37.9 29.9676 37.9C30.7014 37.9 31.4352 37.5858 31.9594 37.062C32.9553 36.3812 33.4794 35.0719 33.2698 33.8673L31.9594 26.9541L37.0436 22.1881C37.8299 21.3502 38.1444 20.0408 37.7775 18.8363Z" fill="white"/>
</g>
</svg>
