<svg width="44" height="44" viewBox="0 0 44 44" fill="none" xmlns="http://www.w3.org/2000/svg">
<g id="Frame">
<path id="Vector" d="M37.8125 18.8C37.5125 17.6 36.4125 16.7 35.2125 16.5L28.1125 15.3L24.9125 8.8C24.3125 7.7 23.1125 7 21.9125 7C20.7125 7 19.5125 7.7 19.0125 8.9L15.8125 15.3L8.7125 16.6C7.5125 16.8 6.5125 17.7 6.1125 18.9V19C5.8125 20.2 6.1125 21.4 7.0125 22.3L12.1125 27.1L10.6125 34C10.4125 35.2 10.9125 36.5 11.9125 37.3C12.5125 37.7 13.1125 37.9 13.8125 37.9C14.3125 37.9 14.9125 37.8 15.3125 37.5L21.8125 34.3L28.3125 37.5C28.9125 37.7 29.3125 37.8 29.8125 37.8C30.6125 37.8 31.3125 37.5 31.8125 37C32.8125 36.3 33.3125 35 33.1125 33.8L31.9125 27L37.0125 22.2C37.8125 21.3 38.1125 20.1 37.8125 18.8ZM14.3125 26.3L8.3125 20.7C8.1125 20.5 7.9125 20 8.0125 19.7C8.2125 19.2 8.5125 19 8.9125 18.9L17.1125 17.4H17.2125L20.9125 9.9C21.1125 9.5 21.5125 9.2 21.9125 9.2C22.2125 9.2 22.6125 9.4 22.8125 9.8L26.5125 17.4L34.8125 18.9C35.2125 19 35.5125 19.2 35.6125 19.5V19.6C35.7125 20 35.6125 20.4 35.3125 20.7L29.3125 26.3L30.8125 34.4C30.8125 34.8 30.7125 35.1 30.4125 35.4H30.3125L30.2125 35.5C30.1125 35.6 30.0125 35.6 29.8125 35.6C29.7125 35.6 29.4125 35.6 29.3125 35.4L21.8125 31.7L21.7125 31.8C15.8125 34.7 14.5125 35.4 14.2125 35.5C14.0125 35.6 13.8125 35.6 13.7125 35.6C13.5125 35.6 13.3125 35.5 13.1125 35.4C12.8125 35.1 12.6125 34.7 12.7125 34.3L14.3125 26.3Z" fill="white"/>
</g>
</svg>
