<svg width="60" height="60" viewBox="0 0 60 60" fill="none" xmlns="http://www.w3.org/2000/svg">
<g id="Group 2085663370">
<circle id="Ellipse 1627" opacity="0.2" cx="30" cy="30" r="30" fill="white"/>
<g id="Group 2085663369">
<path id="Vector" d="M30.1402 12C25.502 12 21.7129 15.7897 21.7129 20.4273V28.4181C21.7129 33.0563 25.502 36.8454 30.1395 36.8454L30.3433 36.8428C34.9063 36.7245 38.5674 32.974 38.5674 28.4181V20.4273C38.5674 15.7897 34.7777 12.0006 30.1402 12.0006V12ZM30.1402 14.5711C33.3578 14.5711 35.9957 17.2096 35.9957 20.4273V28.4181C35.9957 31.5792 33.4472 34.1901 30.2931 34.2724L30.1235 34.2743C26.9225 34.2743 24.2839 31.6364 24.2839 28.4188V20.4266C24.2839 17.209 26.9218 14.5711 30.1395 14.5711H30.1402Z" fill="white"/>
<path id="Vector_2" d="M42.9961 27.873C43.1649 27.873 43.3321 27.9063 43.488 27.9709C43.644 28.0355 43.7857 28.1302 43.9051 28.2496C44.0244 28.3689 44.1191 28.5107 44.1837 28.6666C44.2483 28.8226 44.2816 28.9898 44.2816 29.1586C44.2816 36.5677 37.9054 42.5936 30.1408 42.5936C22.3762 42.5936 16 36.5677 16 29.1586C16 28.8176 16.1354 28.4907 16.3765 28.2496C16.6176 28.0085 16.9446 27.873 17.2855 27.873C17.6265 27.873 17.9534 28.0085 18.1945 28.2496C18.4356 28.4907 18.5711 28.8176 18.5711 29.1586C18.5711 35.1144 23.7646 40.0226 30.1408 40.0226C36.517 40.0226 41.7105 35.1144 41.7105 29.1586C41.7105 28.8176 41.846 28.4907 42.0871 28.2496C42.3281 28.0085 42.6551 27.873 42.9961 27.873Z" fill="white"/>
<path id="Vector_3" d="M30.141 40.0225C30.4652 40.0225 30.7774 40.1451 31.0151 40.3656C31.2528 40.5861 31.3984 40.8883 31.4227 41.2116L31.4265 41.308V46.7091C31.4278 47.0427 31.2995 47.3636 31.0686 47.6043C30.8376 47.8449 30.5222 47.9864 30.1889 47.9988C29.8556 48.0113 29.5305 47.8937 29.2823 47.6709C29.0341 47.4481 28.8822 47.1376 28.8587 46.8049L28.8555 46.7085V41.308C28.8555 40.967 28.9909 40.6401 29.232 40.399C29.4731 40.1579 29.8001 40.0225 30.141 40.0225Z" fill="white"/>
<rect id="Rectangle 23860" x="26.2852" y="21.127" width="2.31395" height="7.71316" rx="1.15697" fill="white"/>
</g>
</g>
</svg>
