<svg width="60" height="47" viewBox="0 0 60 47" fill="none" xmlns="http://www.w3.org/2000/svg">
<path id="Union" d="M21.1426 13.916C21.714 13.916 22.286 14.0584 22.8574 14.4844C23.2859 14.9102 23.7146 15.3365 23.8574 15.9043L28.7139 34.3633L29.5713 31.5234C29.7141 30.9555 30.1428 30.5294 30.5713 30.1035C30.9998 29.8196 31.5712 29.5352 32.1426 29.5352H57.4287C57.7144 29.5352 58.143 29.5358 58.4287 29.6777C58.7143 29.8197 59.0005 29.9612 59.2861 30.2451C59.5718 30.5291 59.7146 30.8137 59.8574 31.0977C60 31.3815 60 31.807 60 32.0908C60 32.3747 60.0001 32.801 59.8574 33.085C59.7146 33.3689 59.5718 33.6535 59.2861 33.9375C59.0005 34.2214 58.7144 34.3629 58.4287 34.5049C58.143 34.6469 57.7144 34.6475 57.4287 34.6475H34L31 45.0127C30.8571 45.5807 30.5711 46.007 30.1426 46.291C29.714 46.5749 29.1426 46.8584 28.5713 46.8584H28.1426V47.001C27.5712 47.0009 26.9998 46.7166 26.5713 46.4326C26.1428 46.1486 25.8567 45.5806 25.7139 45.0127L21.2861 27.8311L20.1426 32.6592C19.9997 33.2271 19.714 33.7951 19.1426 34.0791C18.714 34.505 18.0001 34.6474 17.4287 34.6475H2.71387C2.42815 34.6475 1.99944 34.6468 1.71387 34.5049C1.42823 34.5046 1.00032 34.2211 0.857422 34.0791C0.571857 33.7953 0.428915 33.5114 0.286133 33.2275C0.000418516 32.8016 0 32.5168 0 32.0908C1.55252e-08 31.6653 -2.58505e-05 31.3814 0.142578 31.0977C0.285417 30.8137 0.428226 30.5291 0.713867 30.2451C0.999418 29.9613 1.42815 29.8196 1.71387 29.6777C1.99944 29.5358 2.42815 29.5352 2.71387 29.5352H15.2861L18.4287 15.9043C18.5716 15.3363 18.8573 14.7684 19.4287 14.4844C19.8572 14.0584 20.4284 13.9161 21.1426 13.916ZM46.999 0C48.1419 0 49.2845 0.426371 50.1416 1.27832C50.8559 1.98828 51.4277 3.12383 51.4277 4.25977C51.4277 5.39568 51.1422 6.53184 50.2852 7.38379C48.8566 8.94572 47.2846 10.5072 45.5703 11.7852C45.2846 12.0691 44.8563 12.2119 44.4277 12.2119C43.9993 12.2119 43.5709 12.2115 43.2852 11.9277C41.5709 10.6498 39.9989 9.08732 38.5703 7.52539C37.8562 6.67346 37.4277 5.53718 37.4277 4.40137C37.4278 3.26556 37.8568 2.13017 38.7139 1.27832C39.571 0.426403 40.7134 3.04764e-05 41.999 0C42.8561 0 43.7132 0.284042 44.5703 0.709961C45.1417 0.283999 45.9991 2.66608e-05 46.999 0Z" fill="white"/>
</svg>
