<svg width="150" height="120" viewBox="0 0 150 120" fill="none" xmlns="http://www.w3.org/2000/svg">
<g id="Group 2085663396">
<path id="Vector" d="M139.609 15.0529H137.535C136.26 15.0529 135.034 15.2771 133.898 15.7141V13.8838C133.898 6.22644 127.703 0.0146484 120.083 0.0146484H119.738C112.118 0.0146484 105.919 6.24512 105.919 13.8838V49.4027H44.0592V13.8801C44.0592 6.22644 37.8642 0.0146484 30.2442 0.0146484H29.8955C22.2755 0.0146484 16.0805 6.24512 16.0805 13.8838V15.7141C14.9216 15.2843 13.6946 15.0654 12.458 15.0679H10.3843C7.62499 15.0768 4.98224 16.1769 3.03713 18.1263C1.09201 20.0757 0.00379307 22.7148 0.0117622 25.4632V93.7742C0.00379307 96.5227 1.09201 99.1617 3.03713 101.111C4.98224 103.061 7.62499 104.161 10.3843 104.17H12.458C13.733 104.17 14.9593 103.945 16.0805 103.523V106.116C16.0805 113.773 22.2755 119.985 29.8955 119.985H30.2442C37.8642 119.985 44.0592 113.754 44.0592 106.116V70.8918H105.908V106.116C105.908 113.773 112.103 119.985 119.723 119.985H120.068C127.688 119.985 133.883 113.754 133.883 106.116V103.523C135.019 103.942 136.234 104.188 137.52 104.188H139.598C140.964 104.184 142.317 103.911 143.578 103.386C144.838 102.861 145.983 102.094 146.946 101.128C147.91 100.163 148.672 99.0177 149.191 97.7584C149.71 96.4991 149.975 95.1504 149.97 93.7892V25.4781C149.97 19.7034 145.335 15.0492 139.609 15.0492V15.0529ZM15.9005 93.7555C15.9005 95.6717 14.3518 97.2294 12.443 97.2294H10.3693C9.91324 97.2274 9.46207 97.136 9.04152 96.9604C8.62097 96.7847 8.23927 96.5283 7.91821 96.2057C7.59715 95.8832 7.34302 95.5007 7.17034 95.0803C6.99765 94.6599 6.90978 94.2098 6.91176 93.7555V25.452C6.91176 23.5358 8.46051 21.9782 10.3693 21.9782H12.443C14.3555 21.9782 15.9005 23.5358 15.9005 25.452V93.7555ZM30.2442 113.041H29.8955C28.0552 113.032 26.2936 112.296 24.9972 110.995C23.7008 109.694 22.9755 107.934 22.9805 106.101V13.8651C22.9805 10.0402 26.0817 6.92494 29.8955 6.92494H30.2442C34.0617 6.92494 37.1592 10.0402 37.1592 13.8651V106.101C37.1603 107.933 36.4337 109.691 35.1382 110.991C33.8427 112.291 32.0833 113.028 30.2442 113.041ZM105.739 63.933H44.0592V56.313H105.739V63.933ZM126.998 106.101C127.003 107.934 126.278 109.694 124.981 110.995C123.685 112.296 121.923 113.032 120.083 113.041H119.738C117.898 113.032 116.136 112.296 114.84 110.995C113.543 109.694 112.818 107.934 112.823 106.101V13.8651C112.823 10.0402 115.92 6.92494 119.738 6.92494H120.083C123.9 6.92494 126.998 10.0402 126.998 13.8651V106.101ZM143.067 93.7593C143.067 95.6718 141.518 97.2294 139.609 97.2294H137.535C137.079 97.2274 136.628 97.136 136.208 96.9604C135.787 96.7847 135.405 96.5283 135.084 96.2057C134.763 95.8832 134.509 95.5007 134.336 95.0803C134.164 94.6599 134.076 94.2098 134.078 93.7555V25.452C134.078 23.5358 135.627 21.9782 137.535 21.9782H139.609C141.522 21.9782 143.067 23.5358 143.067 25.452V93.7555V93.7593Z" fill="#474A54"/>
<path id="Vector_2" d="M120.075 120H119.726C112.091 120 105.896 113.773 105.896 106.116V70.9071H44.0775V106.116C44.0775 113.773 37.8675 120 30.2475 120H29.8987C22.2675 120 16.0725 113.773 16.0725 106.116V103.554C14.9175 103.984 13.6944 104.204 12.4613 104.203H10.3875C7.62455 104.192 4.97915 103.088 3.03175 101.136C1.08436 99.1837 -0.00596017 96.5416 2.45074e-05 93.7895V25.4635C-0.00596017 22.7113 1.08436 20.0692 3.03175 18.1169C4.97915 16.1645 7.62455 15.0614 10.3875 15.0495H12.4613C13.7063 15.0495 14.91 15.2624 16.0688 15.6994V13.899C16.0688 6.24167 22.2788 0.0149403 29.8987 0.0149403H30.2475C37.8787 0.0149403 44.0775 6.24541 44.0775 13.899V49.403H105.911V13.8803C105.911 6.23047 112.121 0 119.737 0H120.082C127.717 0 133.912 6.22673 133.912 13.8841V15.6845C135.045 15.2437 136.264 15.0196 137.535 15.0196H139.609C142.391 15.0196 144.99 16.1028 146.955 18.0676C147.926 19.0401 148.695 20.194 149.218 21.4632C149.74 22.7323 150.006 24.0918 150 25.4635V93.7745C150.006 96.5267 148.916 99.1688 146.968 101.121C145.021 103.074 142.375 104.177 139.612 104.189H137.539C136.324 104.189 135.105 103.961 133.916 103.524V106.086C133.901 113.773 127.706 120 120.071 120H120.075ZM44.0437 70.8585H105.919V106.101C105.919 113.74 112.117 119.951 119.722 119.951H120.067C127.676 119.951 133.867 113.74 133.867 106.101V103.468L133.897 103.486C135.086 103.923 136.305 104.151 137.535 104.151H139.609C142.364 104.141 145.003 103.043 146.945 101.096C148.888 99.15 149.976 96.5153 149.97 93.7708V25.4784C149.97 19.7373 145.335 15.0682 139.624 15.0682H137.55C136.275 15.0682 135.06 15.2923 133.912 15.7331L133.886 15.748V13.8803C133.886 6.24541 127.687 0.0336176 120.082 0.0336176H119.737C112.129 0.0336176 105.937 6.24541 105.937 13.8841V49.4179H44.0437V13.8841C44.0437 6.24541 37.8487 0.0336176 30.2438 0.0336176H29.895C22.29 0.0336176 16.095 6.24541 16.095 13.8841V15.748L16.0688 15.7331C14.9097 15.2986 13.6809 15.0784 12.4425 15.0831H10.3688C7.61475 15.095 4.97793 16.1946 3.03687 18.1406C1.09581 20.0867 0.00903976 22.7203 0.0150245 25.4635V93.7745C0.00904247 96.5184 1.09632 99.1525 3.0382 101.099C4.98007 103.045 7.61785 104.144 10.3725 104.155H12.4463C13.7063 104.155 14.9213 103.942 16.0725 103.505L16.0988 103.49V106.116C16.0988 113.755 22.2938 119.966 29.8987 119.966H30.2475C37.8525 119.966 44.0475 113.755 44.0475 106.116V70.8548L44.0437 70.8585ZM120.082 113.06H119.737C117.893 113.048 116.129 112.309 114.83 111.005C113.532 109.701 112.804 107.938 112.807 106.101V13.8654C112.807 10.0218 115.92 6.91029 119.737 6.91029H120.082C121.926 6.92214 123.69 7.66037 124.988 8.96364C126.287 10.2669 127.014 12.0292 127.012 13.8654V106.101C127.015 107.938 126.288 109.701 124.989 111.005C123.691 112.309 121.926 113.048 120.082 113.06ZM119.737 6.94017C115.935 6.94017 112.837 10.0405 112.837 13.8654V106.101C112.833 107.93 113.557 109.686 114.851 110.984C116.144 112.282 117.901 113.016 119.737 113.026H120.082C123.885 113.026 126.982 109.926 126.982 106.101V13.8654C126.986 12.0365 126.262 10.2807 124.969 8.9826C123.676 7.68451 121.918 6.95005 120.082 6.94017H119.737ZM30.2475 113.06H29.8987C28.0554 113.047 26.2921 112.308 24.9942 111.004C23.6963 109.7 22.9695 107.937 22.9725 106.101V13.8654C22.9725 10.0218 26.085 6.91029 29.8987 6.91029H30.2475C32.0902 6.92312 33.853 7.66178 35.1507 8.96495C36.4485 10.2681 37.1758 12.0299 37.1737 13.8654V106.101C37.1625 109.93 34.05 113.06 30.2475 113.06ZM29.8987 6.94017C26.0963 6.94017 22.9988 10.0405 22.9988 13.8654V106.101C22.9948 107.93 23.7188 109.686 25.0121 110.984C26.3055 112.282 28.0627 113.016 29.8987 113.026H30.2475C34.035 113.026 37.1325 109.926 37.1475 106.101V13.8654C37.1515 12.0365 36.4275 10.2807 35.1341 8.9826C33.8408 7.68451 32.0835 6.95005 30.2475 6.94017H29.8987ZM139.612 97.2446H137.539C136.614 97.2406 135.729 96.8714 135.078 96.2179C134.427 95.5644 134.063 94.6803 134.066 93.7596V25.4485C134.064 24.9924 134.152 24.5402 134.326 24.118C134.499 23.6958 134.755 23.3118 135.077 22.9878C135.399 22.6638 135.783 22.4063 136.205 22.2299C136.628 22.0535 137.081 21.9617 137.539 21.9598H139.612C140.07 21.9617 140.524 22.0535 140.946 22.2299C141.368 22.4063 141.752 22.6638 142.074 22.9878C142.397 23.3118 142.652 23.6958 142.825 24.118C142.999 24.5402 143.087 24.9924 143.085 25.4485V93.7558C143.088 94.6765 142.724 95.5607 142.073 96.2142C141.422 96.8676 140.537 97.2369 139.612 97.2409V97.2446ZM137.539 21.9934C136.622 21.9974 135.745 22.3635 135.1 23.0113C134.454 23.6592 134.093 24.5358 134.096 25.4485V93.7558C134.096 95.6534 135.645 97.211 137.539 97.211H139.612C140.066 97.2095 140.516 97.119 140.935 96.9445C141.354 96.7701 141.734 96.5152 142.054 96.1944C142.374 95.8735 142.627 95.493 142.8 95.0746C142.972 94.6562 143.06 94.2081 143.059 93.7558V25.4485C143.059 24.5361 142.696 23.6606 142.051 23.0133C141.405 22.366 140.528 21.9993 139.612 21.9934H137.539ZM12.45 97.2446H10.3763C9.45197 97.2406 8.56706 96.8714 7.91595 96.2179C7.26483 95.5644 6.90078 94.6803 6.90377 93.7596V25.4485C6.90179 24.9924 6.99005 24.5402 7.16349 24.118C7.33693 23.6958 7.59217 23.3118 7.91462 22.9878C8.23707 22.6638 8.62042 22.4063 9.0428 22.2299C9.46517 22.0535 9.91828 21.9617 10.3763 21.9598H12.45C12.908 21.9617 13.3611 22.0535 13.7835 22.2299C14.2059 22.4063 14.5892 22.6638 14.9117 22.9878C15.2341 23.3118 15.4893 23.6958 15.6628 24.118C15.8362 24.5402 15.9245 24.9924 15.9225 25.4485V93.7558C15.9255 94.6765 15.5614 95.5607 14.9103 96.2142C14.2592 96.8676 13.3743 97.2369 12.45 97.2409V97.2446ZM10.3725 21.9934C9.45618 21.9974 8.5789 22.3635 7.93341 23.0113C7.28792 23.6592 6.92703 24.5358 6.93002 25.4485V93.7558C6.93002 95.6534 8.47877 97.211 10.3725 97.211H12.4463C12.9003 97.2095 13.3496 97.119 13.7685 96.9445C14.1875 96.7701 14.5678 96.5152 14.8878 96.1944C15.2078 95.8735 15.4612 95.493 15.6336 95.0746C15.806 94.6562 15.894 94.2081 15.8925 93.7558V25.4485C15.8925 24.5361 15.5302 23.6606 14.8845 23.0133C14.2388 22.366 13.3623 21.9993 12.4463 21.9934H10.3725ZM105.757 63.9482H44.0475V56.2797H105.772V63.9482H105.757ZM44.0775 63.8996H105.727V56.3095H44.0775V63.8996Z" fill="#2C2C2C"/>
<path id="Vector_3" d="M30.2442 113.041H29.8955C28.0552 113.032 26.2936 112.296 24.9972 110.995C23.7008 109.694 22.9755 107.934 22.9805 106.101V13.865C22.9805 10.04 26.0817 6.9248 29.8955 6.9248H30.2442C34.0617 6.9248 37.1592 10.04 37.1592 13.865V106.101C37.1603 107.932 36.4337 109.69 35.1382 110.991C33.8427 112.291 32.0833 113.028 30.2442 113.041Z" fill="#FF9426"/>
<path id="Vector_4" d="M126.999 106.101C127.004 107.934 126.279 109.694 124.983 110.995C123.686 112.296 121.925 113.032 120.084 113.041H119.739C117.899 113.032 116.137 112.296 114.841 110.995C113.545 109.694 112.819 107.934 112.824 106.101V13.865C112.824 10.04 115.922 6.9248 119.739 6.9248H120.084C123.902 6.9248 126.999 10.04 126.999 13.865V106.101Z" fill="#D2FF5C"/>
</g>
</svg>
