<svg width="60" height="50" viewBox="0 0 60 50" fill="none" xmlns="http://www.w3.org/2000/svg">
<path id="Union" d="M44.4062 0C48.5869 8.27052e-05 52.5095 1.61862 55.4453 4.55371C58.3811 7.48886 59.999 11.4114 59.999 15.5928C59.999 19.7741 58.3811 23.696 55.4453 26.6318L53.1582 28.915L53.1592 28.916L35.5605 46.5146L35.5625 46.5166L32.5771 49.5029L14.627 31.5537L17.6133 28.5674L32.5742 43.5283L49.6348 26.4678H43.1846C42.8553 26.4672 42.5304 26.3895 42.2363 26.2412C41.9423 26.093 41.6875 25.8777 41.4912 25.6133L39.2578 22.6152L36.752 28.6777C36.5927 29.0643 36.3218 29.395 35.9746 29.6279C35.6274 29.8608 35.2189 29.9856 34.8008 29.9863C34.3259 29.9862 33.8648 29.8266 33.4922 29.5322L29.6084 26.4668H26.2031C25.7889 26.4663 25.3834 26.3441 25.0381 26.1152C24.6928 25.8864 24.4225 25.561 24.2607 25.1797L22.2256 20.3818L20.3086 25.1445C20.1515 25.5354 19.8812 25.8705 19.5322 26.1064C19.1831 26.3424 18.771 26.4688 18.3496 26.4688H2.1123C1.55221 26.4688 1.01421 26.2466 0.618164 25.8506C0.222239 25.4546 0.000114487 24.9173 0 24.3574C0 23.7973 0.22212 23.2593 0.618164 22.8633C1.01421 22.4673 1.55223 22.2451 2.1123 22.2451H16.9199L20.209 14.0664C20.365 13.6782 20.6329 13.3451 20.9785 13.1094C21.3243 12.8737 21.7329 12.7456 22.1514 12.7422C22.5699 12.7345 22.9809 12.8537 23.3311 13.083C23.6812 13.3123 23.954 13.6417 24.1143 14.0283L27.6006 22.2441H30.3428C30.8182 22.2435 31.28 22.4039 31.6533 22.6982L33.917 24.4863L36.7773 17.5654C36.92 17.2204 37.1514 16.9188 37.4482 16.6924C37.745 16.4661 38.0965 16.3227 38.4668 16.2764C38.8374 16.2301 39.2141 16.2832 39.5576 16.4297C39.901 16.5762 40.1998 16.811 40.4229 17.1104L44.2432 22.2441H53.6455C55.0316 20.3187 55.7938 17.9957 55.7939 15.5928C55.7939 12.5725 54.5936 9.67568 52.458 7.54004C50.3223 5.40439 47.4256 4.2041 44.4053 4.2041C41.3852 4.20419 38.4891 5.40454 36.3535 7.54004L34.2412 9.65039L32.7744 11.2314L28.8535 7.59375C26.6563 5.3986 23.7965 4.22074 20.7441 4.2207C19.0642 4.21578 17.4041 4.58417 15.8838 5.29883C14.3634 6.01355 13.0202 7.05676 11.9521 8.35352C10.8841 9.65028 10.1181 11.1687 9.70801 12.7979C9.29798 14.4269 9.25425 16.1266 9.58105 17.7744L5.43359 18.5732C4.9446 16.0652 5.07834 13.4755 5.82324 11.0312C6.56816 8.58702 7.90143 6.36273 9.70605 4.55371C12.6432 1.61598 16.5637 0 20.7451 0C24.9263 0.000113256 28.8475 1.61813 31.7832 4.55371L32.6045 5.31543L33.3672 4.55371C36.305 1.61528 40.2255 0 44.4062 0Z" fill="white"/>
</svg>
