<svg width="60" height="60" viewBox="0 0 60 60" fill="none" xmlns="http://www.w3.org/2000/svg">
<path id="Union" d="M52.9512 45.9023C53.8769 45.9023 54.7942 46.0842 55.6494 46.4385C56.5046 46.7927 57.282 47.3123 57.9365 47.9668C58.591 48.6213 59.1097 49.3988 59.4639 50.2539C59.8181 51.1091 60.001 52.0255 60.001 52.9512C60.001 54.8206 59.2583 56.6136 57.9365 57.9355C56.6145 59.2575 54.8207 60 52.9512 60C51.0817 59.9999 49.2887 59.2574 47.9668 57.9355C46.6449 56.6136 45.9023 54.8206 45.9023 52.9512C45.9023 52.0256 46.0843 51.109 46.4385 50.2539C46.7927 49.3987 47.3123 48.6213 47.9668 47.9668C48.6214 47.3122 49.3987 46.7927 50.2539 46.4385C51.109 46.0843 52.0256 45.9024 52.9512 45.9023ZM52.9512 50.1641C52.2122 50.1642 51.503 50.4579 50.9805 50.9805C50.4579 51.5031 50.165 52.2121 50.165 52.9512C50.165 53.6902 50.4579 54.3993 50.9805 54.9219C51.503 55.4444 52.2122 55.7382 52.9512 55.7383C53.6902 55.7383 54.3993 55.4444 54.9219 54.9219C55.4445 54.3992 55.7383 53.6903 55.7383 52.9512C55.7383 52.212 55.4445 51.5031 54.9219 50.9805C54.3992 50.4579 53.6902 50.1641 52.9512 50.1641ZM25.082 3.2793C31.7342 3.2793 38.1145 5.92217 42.8184 10.626C47.5219 15.3297 50.164 21.7094 50.1641 28.3613C50.1641 35.0135 47.5222 41.3938 42.8184 46.0977C38.1145 50.8015 31.7342 53.4434 25.082 53.4434C18.4301 53.4433 12.0504 50.8012 7.34668 46.0977C2.64287 41.3938 0 35.0135 0 28.3613C2.52331e-05 21.7092 2.64289 15.3298 7.34668 10.626C12.0505 5.92219 18.4299 3.27932 25.082 3.2793ZM25.082 7.54199C22.348 7.54201 19.6402 8.0797 17.1143 9.12598C14.5884 10.1723 12.2936 11.7064 10.3604 13.6396C8.42712 15.5729 6.89297 17.8677 5.84668 20.3936C4.8004 22.9195 4.26271 25.6273 4.2627 28.3613C4.2627 31.0954 4.80039 33.8031 5.84668 36.3291C6.89296 38.855 8.42712 41.1497 10.3604 43.083C12.2936 45.0162 14.5884 46.5504 17.1143 47.5967C19.6402 48.643 22.348 49.1816 25.082 49.1816C30.6038 49.1816 35.8992 46.9875 39.8037 43.083C43.7082 39.1785 45.9023 33.8831 45.9023 28.3613C45.9023 22.8396 43.7082 17.5441 39.8037 13.6396C35.8993 9.73524 30.6037 7.54199 25.082 7.54199ZM24.8828 13.2168C25.4439 13.1562 26.0062 13.3204 26.4463 13.6738C26.8863 14.0272 27.1686 14.5406 27.2305 15.1016C27.2921 15.6633 27.128 16.2271 26.7744 16.668C26.4209 17.1087 25.9064 17.3903 25.3447 17.4521C22.6063 17.7524 20.0413 18.9407 18.041 20.835C16.0407 22.7293 14.7143 25.2262 14.2656 27.9443C14.2288 28.2279 14.1358 28.5014 13.9912 28.748C13.8466 28.9947 13.6533 29.2093 13.4238 29.3799C13.1943 29.5505 12.9332 29.6738 12.6553 29.7412C12.3774 29.8087 12.0888 29.8189 11.8066 29.7725C11.5245 29.726 11.2543 29.6237 11.0127 29.4707C10.7712 29.3178 10.5631 29.1178 10.4004 28.8828C10.2377 28.6476 10.1234 28.3816 10.0654 28.1016C10.0076 27.8218 10.0066 27.5331 10.0625 27.2529C10.6624 23.6168 12.4357 20.2765 15.1113 17.7422C17.7871 15.2079 21.2193 13.6185 24.8828 13.2168ZM52.9512 0C53.8769 0 54.7942 0.181876 55.6494 0.536133C56.5047 0.890389 57.282 1.40988 57.9365 2.06445C58.591 2.71898 59.1096 3.49641 59.4639 4.35156C59.8181 5.20669 60.0009 6.12325 60.001 7.04883C60.001 8.9184 59.2585 10.7122 57.9365 12.0342C56.6145 13.3562 54.8207 14.0986 52.9512 14.0986C51.0818 14.0985 49.2887 13.356 47.9668 12.0342C46.6448 10.7122 45.9023 8.9184 45.9023 7.04883C45.9024 6.12329 46.0843 5.20666 46.4385 4.35156C46.7927 3.49631 47.3122 2.71903 47.9668 2.06445C48.6214 1.40987 49.3987 0.890389 50.2539 0.536133C51.109 0.181961 52.0256 5.12162e-05 52.9512 0ZM52.9512 4.2627C52.5853 4.26269 52.2228 4.33463 51.8848 4.47461C51.5467 4.61462 51.2392 4.81942 50.9805 5.07812C50.7216 5.33691 50.5161 5.64428 50.376 5.98242C50.2359 6.32045 50.1641 6.68294 50.1641 7.04883C50.1641 7.41485 50.2359 7.77806 50.376 8.11621C50.5161 8.45429 50.7217 8.76176 50.9805 9.02051C51.2392 9.27918 51.5467 9.48403 51.8848 9.62402C52.2228 9.764 52.5853 9.83595 52.9512 9.83594C53.6902 9.83581 54.3993 9.54216 54.9219 9.01953C55.4444 8.49691 55.7383 7.78785 55.7383 7.04883C55.7382 6.31 55.4442 5.60162 54.9219 5.0791C54.3993 4.55647 53.6902 4.26282 52.9512 4.2627Z" fill="white"/>
</svg>
